<svg width="2" height="2" viewBox="0 0 2 2" fill="none" xmlns="http://www.w3.org/2000/svg">
<path d="M0.827136 1.26052V0.611308C0.827136 0.542316 0.827136 0.507131 0.750356 0.51403C0.673577 0.520929 0.536885 0.51403 0.432767 0.51403C0.328649 0.51403 0.3746 0.462286 0.367039 0.409853C0.359477 0.35742 0.367039 0.325684 0.432767 0.325684H1.4088C1.47977 0.325684 1.47977 0.364319 1.47977 0.422961C1.47977 0.481604 1.47977 0.520239 1.40299 0.51403C1.32621 0.507821 1.21685 0.51403 1.12379 0.51403C1.03072 0.51403 1.01443 0.546456 1.01443 0.643734V1.8704C1.01443 1.95457 1.01443 2.0001 0.921366 2.0001C0.8283 2.0001 0.817248 2.0001 0.823065 1.87661C0.832953 1.68205 0.827136 1.47439 0.827136 1.26052Z" fill="black"/>
</svg>
