<svg width="3" height="2" viewBox="0 0 3 2" fill="none" xmlns="http://www.w3.org/2000/svg">
<path d="M1.91948 0.627573C1.80211 0.963172 1.68474 1.27206 1.56737 1.60766C1.54744 1.70238 1.51491 1.79442 1.47054 1.88162C1.46703 1.91584 1.449 1.94732 1.42048 1.96906C1.39196 1.99081 1.35531 2.00099 1.31869 1.99736C1.21526 1.99736 1.20132 1.946 1.18078 1.88162L0.76632 0.717294C0.774582 0.678583 0.75115 0.640079 0.711303 0.626888V1.88436C0.711303 1.96175 0.711303 2.0001 0.600535 2.0001C0.489767 2.0001 0.476562 2.0001 0.476562 1.88436V0.446076C0.476562 0.35567 0.476562 0.330329 0.600535 0.336493C0.849213 0.336493 0.849213 0.336493 0.92477 0.555659L1.29742 1.6193C1.2973 1.65464 1.31861 1.68701 1.35244 1.70286L1.79258 0.445391C1.8752 0.341572 2.02036 0.299722 2.15129 0.341972V1.91723C2.15129 2.00764 2.09627 1.99462 2.03392 1.99462C1.97157 1.99462 1.92315 1.99462 1.92315 1.90422V0.769346C1.93685 0.722603 1.93454 0.673029 1.91655 0.627573H1.91948Z" fill="black"/>
</svg>
