<svg width="24" height="24" viewBox="0 0 24 24" fill="none" xmlns="http://www.w3.org/2000/svg">
<path d="M12.9305 17.0553C12.9305 16.2894 13.3155 16.1362 13.9893 16.5447C15.2887 17.3106 16.5881 18.0766 16.5881 18.0766C16.6362 17.6681 16.9731 17.2596 17.7432 17.4638C18.4651 17.617 19.2832 17.8213 19.2832 17.8213C19.2832 17.8213 18.8501 16.8 18.6576 16.3404C18.3207 15.5234 18.6576 15.1149 18.9945 15.0128C18.9945 15.0128 18.5132 14.6553 18.1763 14.4C17.5025 13.8894 17.6469 13.3787 18.3207 13.0723C19.2351 12.6638 20.3902 12.1021 20.3902 12.1021C20.0051 11.8979 19.6201 11.234 20.1014 10.5191C20.5827 9.80426 21.2564 8.78298 21.2564 8.78298C21.2564 8.78298 20.0051 8.78298 19.187 8.78298C18.4169 8.78298 18.2726 8.11915 18.2726 7.71064C18.2726 7.71064 17.0694 8.62979 16.155 9.24255C15.4331 9.75319 14.7593 9.24255 14.8555 8.37447C15.0481 6.94468 15.1924 5.41277 15.1924 5.41277C14.7593 5.71915 13.9411 5.71915 13.6042 4.95319C13.0748 3.77872 12.4973 2.4 12.4973 2.4C12.4973 2.4 11.9198 3.77872 11.3904 4.95319C11.0535 5.71915 10.2835 5.77021 9.80221 5.41277C9.80221 5.41277 9.94659 6.99575 10.1391 8.37447C10.2354 9.29362 9.56157 9.80426 8.83967 9.24255C7.97338 8.62979 6.72208 7.71064 6.72208 7.71064C6.72208 8.17021 6.52957 8.78298 5.80767 8.78298C4.98951 8.78298 3.73821 8.78298 3.73821 8.78298C3.73821 8.78298 4.46011 9.80426 4.89325 10.5191C5.37452 11.234 4.94138 11.8979 4.60449 12.1021C4.60449 12.1021 5.75954 12.6638 6.67395 13.0723C7.34773 13.3787 7.49211 13.8894 6.81833 14.4C6.48145 14.6553 6.00017 15.0128 6.00017 15.0128C6.33706 15.1149 6.67395 15.5234 6.33706 16.3404C6.14456 16.8 5.71141 17.8213 5.71141 17.8213C5.71141 17.8213 6.52957 17.617 7.25148 17.4638C8.02151 17.2596 8.3584 17.6681 8.40653 18.0766C8.40653 18.0766 9.75408 17.3106 11.0054 16.5447C11.6792 16.1362 12.0642 16.2894 12.0642 17.0553C12.0642 17.6681 12.0642 18.9447 12.0642 18.9447C12.0642 20.0681 11.8717 21.2426 11.4867 21.9064C6.5777 21.3447 2.4869 17.1574 2.4869 11.6426C2.4869 5.97447 6.96271 1.37872 12.4492 1.37872C17.9357 1.37872 22.4115 5.97447 22.4115 11.6426C22.4115 16.9532 18.5132 21.2936 13.5561 21.8553C13.5561 22.0596 13.5561 22.9787 13.5561 23.234C19.4276 22.6723 23.9997 17.6681 23.9997 11.6426C24.0478 5.20851 18.8982 0 12.4973 0C6.14456 0 0.946838 5.20851 0.946838 11.6426C0.946838 17.3106 4.94138 22.0085 10.2354 23.0809C11.1498 23.2851 11.7273 23.3872 12.1604 24C12.738 22.8766 12.8823 20.5787 12.8823 19.2511C12.9305 19.3021 12.9305 17.6681 12.9305 17.0553Z" fill="black"/>
</svg>
