<svg width="146" height="14" viewBox="0 0 146 14" fill="none" xmlns="http://www.w3.org/2000/svg">
<path fill-rule="evenodd" clip-rule="evenodd" d="M59.5498 13.0206C58.2076 13.5761 56.5175 13.8286 54.5292 13.8286C52.1432 13.8286 50.2543 13.2226 48.9121 12.1117C47.57 10.9502 46.9238 9.33427 46.9238 7.31433C46.9238 5.1934 47.6197 3.62796 48.9618 2.46649C50.304 1.35553 52.2426 0.800049 54.7777 0.800049C56.3684 0.800049 57.9591 0.951544 59.5498 1.30503V3.32497C57.7603 2.76948 56.0702 2.51699 54.8772 2.51699C53.3362 2.51699 52.1432 2.92098 51.2981 3.72895C50.4531 4.53693 50.0554 5.74889 50.0057 7.26384C50.0057 8.77879 50.4531 9.94025 51.3478 10.7987C52.2426 11.6572 53.4853 12.0612 55.1257 12.0612C56.5672 12.0612 58.1579 11.7582 59.5995 11.1522L59.5498 13.0206ZM26.643 13.4246V1.10303H32.5583C35.6899 1.10303 37.1315 2.46648 37.2309 4.18343C37.2806 4.9409 37.0818 5.74887 36.535 6.35485C35.9882 6.96083 35.7396 7.21333 34.7455 7.66781L39.2192 13.4246H35.8888L31.9618 8.32429H29.2775V13.4246H26.643ZM29.2805 6.70836H30.4735C33.7542 6.70836 34.4005 6.15288 34.4005 4.53693C34.4005 2.97149 32.9589 2.71899 30.8214 2.71899H29.2308V6.70836H29.2805ZM5.31882 1.1031L0 13.4247H2.03805L3.4796 10.1423H9.09667L10.4885 13.4247H13.7693L8.54988 1.1031H5.31882ZM4.17638 8.52651H8.40161L6.31385 3.62817L4.17638 8.52651ZM17.5486 1.10303V13.4246H20.382V1.10303H17.5486ZM68.3509 1.10303L63.0321 13.4246H65.0702L66.5117 10.1422H72.1288L73.5206 13.4246H76.8014L71.582 1.10303H68.3509ZM67.2046 8.52651H71.4298L69.3421 3.62817L67.2046 8.52651ZM103.394 1.15356L98.0747 13.4247H100.113L101.554 10.1423H107.171L108.563 13.4247H111.844L106.625 1.15356H103.394ZM102.251 8.52651H106.476L104.389 3.62817L102.251 8.52651ZM136.648 1.10303L131.33 13.4246H133.368L134.809 10.1422H140.426L141.818 13.4246H145.099L139.879 1.10303H136.648ZM135.506 8.52651H139.731L137.643 3.62817L135.506 8.52651ZM80.8266 1.10303V13.4246H83.1132V4.23392L91.0169 13.4246H93.9994V1.10303H91.7128V9.88974L84.1074 1.10303H80.8266ZM115.818 13.4246V1.10303H121.684C123.772 1.10303 125.412 1.60801 126.506 2.66848C127.599 3.67844 128.196 5.14289 128.196 7.06183C128.196 9.08177 127.599 10.6472 126.406 11.8087C125.213 12.9196 123.523 13.4751 121.436 13.4751H115.818V13.4246ZM120.743 11.6573H118.655H118.605V2.82007H120.345C121.439 2.82007 122.284 2.92107 122.831 3.12306C123.377 3.32505 123.874 3.67854 124.272 4.23402C124.869 4.9915 125.167 6.00146 125.167 7.16293C125.167 8.67788 124.819 9.78884 124.073 10.5463C123.328 11.3038 122.234 11.6573 120.743 11.6573Z" fill="black"/>
</svg>
