<svg width="19" height="15" viewBox="0 0 19 15" fill="none" xmlns="http://www.w3.org/2000/svg">
<path fill-rule="evenodd" clip-rule="evenodd" d="M18.5181 2.12378C17.5506 0.247186 15.6093 0.113504 13.7948 0.0378346L6.93999 0C6.64649 0.0136717 6.35131 0.0224031 6.05651 0.0311233C4.71968 0.0706671 3.3906 0.109981 2.26078 0.608717C1.29131 1.05627 0.605951 1.99036 0.442198 3.0873L0.41011 11.5185L0.55611 12.4434C0.946113 13.6103 1.90912 14.4638 3.0718 14.6731C4.88683 15.0198 6.84432 15.0077 8.80737 14.9955C9.46712 14.9914 10.1275 14.9873 10.7833 14.9968C11.2569 14.9818 11.7346 14.9806 12.2117 14.9793C13.9586 14.9746 15.6966 14.97 17.188 14.2931C18.1066 13.7894 18.7223 12.8358 18.8269 11.7548V3.80532C18.8473 3.22749 18.7416 2.6524 18.5181 2.12378ZM4.3668 4.28702C4.42135 3.88092 4.88101 3.72875 5.24361 3.65308L5.23157 3.61945H14.2362C14.2704 3.63136 14.3062 3.64235 14.3425 3.65354C14.5371 3.7134 14.7492 3.77866 14.8411 4.01881L14.8956 4.50057V10.6735C14.6071 11.2376 14.0405 11.2457 13.4803 11.2537C13.335 11.2557 13.1901 11.2578 13.0506 11.2696H5.18906C5.11988 11.2454 5.04324 11.2299 4.96531 11.214C4.73687 11.1676 4.49741 11.119 4.4029 10.845C4.33698 9.27475 4.34785 7.67336 4.35868 6.07772C4.36275 5.47936 4.3668 4.88181 4.3668 4.28702Z" fill="black"/>
</svg>
